# xmcd
#
# Track frame offsets: 
#        150
#        16413
#        32397
#        45810
#        61969
#        76222
#        89068
#        102680
#        115742
#        131192
#        143575
#        160078
#
# Disc length: 2380 seconds
#
# Revision: 0
# Processed by: cddbd v1.5.1PL0 Copyright (c) Steve Scherf et al.
# Submitted via: ExactAudioCopy v0.95b3
#
DISCID=93094a0c
DTITLE=GEORGE HAMILTON V and COLORADO BAND - LIVE IN LODZ
DYEAR=1900
DGENRE=Country
TTITLE0=Roll with the punches
TTITLE1=Ghost town
TTITLE2=You and yesterday
TTITLE3=Kansas City
TTITLE4=The heart of mine
TTITLE5=Pass me by
TTITLE6=Stay another night
TTITLE7=Edinburgh
TTITLE8=House of tears
TTITLE9=Gone, gone, gone
TTITLE10=I can't tell you why
TTITLE11=Midnight at the redlight
EXTD=
EXTT0=
EXTT1=
EXTT2=
EXTT3=
EXTT4=
EXTT5=
EXTT6=
EXTT7=
EXTT8=
EXTT9=
EXTT10=
EXTT11=
PLAYORDER=
